<svg width="25" height="24" viewBox="0 0 25 24" fill="none" xmlns="http://www.w3.org/2000/svg">
<path d="M0.5 12C0.5 5.37258 5.87258 0 12.5 0C19.1274 0 24.5 5.37258 24.5 12C24.5 18.6274 19.1274 24 12.5 24C5.87258 24 0.5 18.6274 0.5 12Z" fill="#FEE500"/>
<path d="M12.5 5C13.9464 5 15.2842 5.26666 16.5134 5.79999C17.7426 6.33331 18.7143 7.05852 19.4286 7.97561C20.1429 8.8927 20.5 9.89304 20.5 10.9766C20.5 12.0602 20.1429 13.0619 19.4286 13.9819C18.7143 14.9018 17.744 15.6284 16.5179 16.1617C15.2917 16.695 13.9524 16.9617 12.5 16.9617C12.0417 16.9617 11.5685 16.9307 11.0804 16.8686C8.96131 18.2626 7.83333 18.968 7.69643 18.985C7.63095 19.0075 7.56845 19.0047 7.50893 18.9765C7.48512 18.9596 7.46726 18.937 7.45536 18.9088C7.44345 18.8805 7.4375 18.8551 7.4375 18.8326V18.7987C7.47321 18.5786 7.74405 17.6615 8.25 16.0474C7.10119 15.5056 6.18899 14.7875 5.51339 13.893C4.8378 12.9985 4.5 12.0263 4.5 10.9766C4.5 9.89304 4.85714 8.8927 5.57143 7.97561C6.28571 7.05852 7.25744 6.33331 8.48661 5.79999C9.71577 5.26666 11.0536 5 12.5 5Z" fill="#3C1E1E"/>
</svg>
