<svg width="24" height="24" viewBox="0 0 24 24" fill="none" xmlns="http://www.w3.org/2000/svg">
<path fill-rule="evenodd" clip-rule="evenodd" d="M10.75 6.00002C10.75 5.69668 10.5673 5.4232 10.287 5.30711C10.0068 5.19103 9.68417 5.25519 9.46967 5.46969L6.46967 8.46969C6.17678 8.76259 6.17678 9.23746 6.46967 9.53035C6.76256 9.82325 7.23744 9.82325 7.53033 9.53035L9.25 7.81068V18C9.25 18.4142 9.58579 18.75 10 18.75C10.4142 18.75 10.75 18.4142 10.75 18V6.00002ZM13.25 18C13.25 18.3034 13.4327 18.5769 13.713 18.6929C13.9932 18.809 14.3158 18.7449 14.5303 18.5304L17.5303 15.5304C17.8232 15.2375 17.8232 14.7626 17.5303 14.4697C17.2374 14.1768 16.7626 14.1768 16.4697 14.4697L14.75 16.1894L14.75 6.00004C14.75 5.58583 14.4142 5.25004 14 5.25004C13.5858 5.25004 13.25 5.58583 13.25 6.00004L13.25 18Z" fill="#B7B9BD"/>
</svg>
