<svg width="20" height="21" viewBox="0 0 20 21" fill="none" xmlns="http://www.w3.org/2000/svg">
<g clip-path="url(#clip0_2577_1507)">
<path d="M12.0001 10.0164C11.9985 10.4107 11.8803 10.7958 11.6604 11.1231C11.4405 11.4505 11.1288 11.7056 10.7644 11.8562C10.3999 12.0069 9.99911 12.0465 9.61225 11.97C9.22539 11.8936 8.86978 11.7044 8.59011 11.4264C8.3121 11.1467 8.12296 10.7911 8.04648 10.4043C7.97 10.0174 8.00959 9.61658 8.16028 9.25216C8.31096 8.88774 8.56601 8.576 8.89337 8.35613C9.22072 8.13625 9.60577 8.01806 10.0001 8.0164V0.0164027C11.3144 0.0124419 12.6166 0.268396 13.8316 0.76954C15.0467 1.27068 16.1506 2.00713 17.08 2.9365C18.0094 3.86588 18.7458 4.96984 19.247 6.18489C19.7481 7.39993 20.0041 8.70207 20.0001 10.0164H12.0001ZM19.9001 11.4264C19.6382 13.2653 18.8693 14.995 17.6796 16.4215C16.4899 17.848 14.9264 18.9149 13.1644 19.5027C11.4023 20.0904 9.51138 20.1758 7.70354 19.7493C5.89569 19.3227 4.24238 18.401 2.92893 17.0876C1.61549 15.7741 0.693826 14.1208 0.26726 12.313C-0.159306 10.5051 -0.0739161 8.61421 0.513859 6.85216C1.10163 5.09012 2.16856 3.52661 3.59504 2.3369C5.02152 1.14718 6.75118 0.378288 8.59011 0.116403V2.1464C7.15202 2.4051 5.81224 3.05272 4.71617 4.01898C3.6201 4.98525 2.80959 6.23324 2.37262 7.62755C1.93564 9.02186 1.88888 10.5092 2.2374 11.9282C2.58593 13.3472 3.31643 14.6437 4.34964 15.6769C5.38285 16.7101 6.6793 17.4406 8.0983 17.7891C9.5173 18.1376 11.0047 18.0909 12.399 17.6539C13.7933 17.2169 15.0413 16.4064 16.0075 15.3103C16.9738 14.2143 17.6214 12.8745 17.8801 11.4364H19.9001V11.4264ZM15.8301 11.4264C15.578 12.4609 15.0551 13.4097 14.3152 14.1754C13.5752 14.9411 12.6448 15.496 11.6195 15.7833C10.5942 16.0706 9.51087 16.0798 8.4808 15.8101C7.45073 15.5404 6.511 15.0014 5.75807 14.2484C5.00515 13.4955 4.46615 12.5558 4.19642 11.5257C3.92668 10.4956 3.93593 9.41234 4.22321 8.38703C4.51049 7.36171 5.06545 6.43132 5.83112 5.69135C6.59679 4.95139 7.54559 4.42851 8.58011 4.1764V6.2764C7.95416 6.51219 7.39753 6.90156 6.9614 7.40871C6.52527 7.91586 6.22364 8.52452 6.08424 9.17872C5.94483 9.83292 5.97214 10.5117 6.16363 11.1526C6.35512 11.7935 6.70466 12.3759 7.18011 12.8464C7.65328 13.3166 8.23653 13.661 8.87677 13.8483C9.51701 14.0355 10.1939 14.0597 10.8459 13.9185C11.4978 13.7774 12.1042 13.4755 12.6097 13.0402C13.1151 12.605 13.5038 12.0502 13.7401 11.4264H15.8401H15.8301Z" fill="white"/>
</g>
<defs>
<clipPath id="clip0_2577_1507">
<rect width="20" height="20" fill="white" transform="translate(0 0.0163574)"/>
</clipPath>
</defs>
</svg>
